<svg aria-hidden="true" style="position: absolute; width: 0; height: 0; overflow: hidden;" version="1.1" xmlns="http://www.w3.org/2000/svg" xmlns:xlink="http://www.w3.org/1999/xlink">
<defs>
<symbol id="icon-radio" viewBox="0 0 32 32">
<path d="M14 5c0-0.552 0.448-1 1-1v0h14c0.552 0 1 0.448 1 1v0 2c0 0.552-0.448 1-1 1v0h-14c-0.552 0-1-0.448-1-1v0-2zM0 24c0-3.314 2.686-6 6-6s6 2.686 6 6v0c0 3.314-2.686 6-6 6s-6-2.686-6-6v0zM14 21c0-0.552 0.448-1 1-1v0h14c0 0 0.001 0 0.002 0 0.551 0 0.998 0.447 0.998 0.998 0 0.001 0 0.001 0 0.002v-0 2c0 0 0 0.001 0 0.002 0 0.551-0.447 0.998-0.998 0.998-0.001 0-0.001 0-0.002 0h-14c-0.552 0-1-0.448-1-1v0-2zM14 11c0-0.552 0.448-1 1-1v0h10c0.552 0 1 0.448 1 1s-0.448 1-1 1v0h-10c-0.552 0-1-0.448-1-1v0zM14 27c0-0.552 0.448-1 1-1v0h10c0.552 0 1 0.448 1 1s-0.448 1-1 1v0h-10c-0.552 0-1-0.448-1-1v0zM6 2c-3.314 0-6 2.686-6 6s2.686 6 6 6v0c3.314 0 6-2.686 6-6s-2.686-6-6-6v0zM6 11c-1.657 0-3-1.343-3-3s1.343-3 3-3v0c1.657 0 3 1.343 3 3s-1.343 3-3 3v0z"></path>
</symbol>
<symbol id="icon-logo" viewBox="0 0 272 32">
<path fill="#475467" style="fill: var(--color1, #475467)" d="M270.786 14.376h-7.216c-0.031-0.443-0.204-0.841-0.472-1.155l0.002 0.003c-0.283-0.325-0.64-0.578-1.046-0.734l-0.018-0.006c-0.405-0.17-0.876-0.268-1.369-0.268-0.018 0-0.037 0-0.055 0l0.003-0c-0.672 0-1.25 0.124-1.732 0.37-0.484 0.246-0.72 0.596-0.71 1.050-0.010 0.322 0.128 0.62 0.412 0.896 0.292 0.274 0.856 0.486 1.69 0.64l4.432 0.794c2.234 0.408 3.896 1.094 4.986 2.060 1.098 0.956 1.652 2.24 1.662 3.85-0.010 1.552-0.474 2.9-1.392 4.048-0.91 1.136-2.156 2.016-3.736 2.64-1.572 0.616-3.368 0.924-5.384 0.924-3.334 0-5.942-0.68-7.826-2.044-1.876-1.364-2.922-3.164-3.14-5.4h7.784c0.104 0.692 0.446 1.228 1.022 1.606 0.588 0.37 1.326 0.554 2.216 0.554 0.72 0 1.312-0.122 1.776-0.368 0.474-0.246 0.716-0.598 0.724-1.052-0.008-0.416-0.218-0.748-0.624-0.994-0.398-0.246-1.024-0.446-1.876-0.596l-3.862-0.682c-2.226-0.388-3.892-1.128-5-2.216-1.108-1.090-1.658-2.492-1.648-4.206-0.010-1.514 0.388-2.798 1.192-3.848 0.814-1.060 1.974-1.866 3.48-2.416 1.516-0.558 3.31-0.838 5.384-0.838 3.154 0 5.64 0.654 7.458 1.96 1.828 1.308 2.788 3.116 2.884 5.426zM232.83 23.92l0.056-9.318h1.024l5.284-7.33h8.806l-8.864 11.42h-2.216l-4.090 5.228zM225.784 29.090v-29.090h7.842v29.092h-7.842zM239.25 29.090l-5-8.636 5.114-5.568 8.864 14.206h-8.978zM211.238 29.488c-2.368 0-4.394-0.468-6.080-1.406-1.656-0.926-2.98-2.272-3.853-3.896l-0.025-0.052c-0.9-1.696-1.348-3.66-1.348-5.896 0-2.234 0.448-4.194 1.348-5.88 0.893-1.68 2.218-3.028 3.829-3.923l0.049-0.025c1.686-0.948 3.712-1.42 6.080-1.42 2.14 0 3.992 0.386 5.554 1.164 1.572 0.766 2.788 1.856 3.65 3.266 0.862 1.402 1.298 3.050 1.308 4.944h-7.274c-0.104-1.146-0.436-2.018-0.994-2.614-0.55-0.606-1.26-0.91-2.13-0.91-0.682 0-1.28 0.2-1.79 0.598-0.512 0.388-0.91 0.98-1.194 1.776-0.284 0.786-0.426 1.774-0.426 2.968s0.142 2.188 0.426 2.982c0.284 0.786 0.682 1.38 1.194 1.776 0.51 0.388 1.108 0.582 1.79 0.582 0.578 0 1.088-0.132 1.534-0.396 0.444-0.276 0.804-0.674 1.080-1.194 0.284-0.53 0.454-1.174 0.51-1.932h7.274c-0.030 1.922-0.47 3.6-1.322 5.028-0.852 1.42-2.060 2.52-3.622 3.296-1.554 0.776-3.41 1.164-5.568 1.164zM188.098 19.546v-12.274h7.84v21.82h-7.442v-4.148h-0.228c-0.452 1.367-1.325 2.493-2.463 3.252l-0.023 0.014c-1.184 0.776-2.59 1.164-4.22 1.164-1.524 0-2.86-0.35-4.004-1.050-1.136-0.709-2.041-1.691-2.637-2.857l-0.019-0.041c-0.626-1.23-0.942-2.642-0.952-4.232v-13.92h7.84v12.272c0.010 1.080 0.284 1.926 0.824 2.542 0.55 0.616 1.316 0.924 2.3 0.924 0.656 0 1.22-0.138 1.692-0.412 0.484-0.284 0.852-0.682 1.108-1.194 0.266-0.52 0.394-1.14 0.384-1.86zM155.806 29.092v-21.82h7.614v4.148h0.226c0.4-1.534 1.028-2.656 1.89-3.366 0.803-0.664 1.843-1.067 2.977-1.067 0.027 0 0.054 0 0.081 0.001l-0.004-0c0.34 0 0.676 0.030 1.008 0.086 0.34 0.048 0.668 0.12 0.98 0.212v6.694c-0.415-0.139-0.901-0.245-1.404-0.297l-0.030-0.003c-0.433-0.058-0.94-0.094-1.454-0.1l-0.008-0c-0.768 0-1.46 0.176-2.074 0.528-0.606 0.34-1.086 0.822-1.436 1.448-0.35 0.616-0.526 1.34-0.526 2.174v11.362h-7.84zM128.9 6.364v-6.364h25.286v6.364h-8.75v22.728h-7.784v-22.73h-8.752z"></path>
<path fill="#101828" style="fill: var(--color2, #101828)" d="M125.016 0v29.092h-7.84v-29.092h7.84zM102.494 29.488c-2.33 0-4.338-0.444-6.024-1.334-1.658-0.889-2.983-2.21-3.854-3.815l-0.024-0.049c-0.9-1.686-1.348-3.702-1.348-6.052 0-2.254 0.454-4.222 1.362-5.908 0.896-1.666 2.209-3.006 3.802-3.911l0.048-0.025c1.658-0.936 3.614-1.406 5.866-1.406 1.648 0 3.14 0.256 4.476 0.768 1.34 0.51 2.483 1.269 3.42 2.228l0.002 0.002c0.948 0.966 1.676 2.14 2.188 3.522 0.512 1.384 0.768 2.94 0.768 4.674v1.818h-19.49v-4.32h12.274c0-0.003 0-0.006 0-0.009 0-0.608-0.181-1.175-0.491-1.648l0.007 0.011c-0.304-0.48-0.722-0.862-1.218-1.114l-0.018-0.008c-0.488-0.26-1.067-0.413-1.682-0.413-0.023 0-0.045 0-0.068 0.001l0.003-0c-0.636 0-1.218 0.138-1.748 0.412-0.524 0.26-0.955 0.636-1.273 1.097l-0.007 0.011c-0.31 0.474-0.476 1.028-0.496 1.66v4.66c0 0.7 0.148 1.326 0.44 1.876 0.294 0.55 0.716 0.98 1.266 1.292 0.548 0.314 1.212 0.47 1.988 0.47 0.54 0 1.032-0.076 1.478-0.228 0.454-0.152 0.842-0.37 1.164-0.654 0.32-0.292 0.56-0.644 0.71-1.050h7.16c-0.233 1.518-0.855 2.861-1.759 3.962l0.011-0.014c-0.92 1.108-2.136 1.97-3.65 2.586-1.506 0.606-3.268 0.908-5.284 0.908zM89.672 7.272l-7.328 21.82h-9.092l-7.33-21.82h8.24l3.522 14.432h0.228l3.522-14.432h8.24zM50.112 29.432c-1.392 0-2.624-0.228-3.694-0.682-1.042-0.449-1.894-1.173-2.487-2.081l-0.013-0.021c-0.606-0.938-0.908-2.132-0.908-3.58 0-1.194 0.204-2.212 0.61-3.054 0.401-0.844 0.979-1.545 1.692-2.078l0.014-0.010c0.728-0.54 1.576-0.952 2.54-1.236 0.922-0.274 1.998-0.471 3.106-0.551l0.050-0.003c1.22-0.094 2.2-0.208 2.94-0.34 0.748-0.142 1.288-0.336 1.62-0.582 0.302-0.223 0.496-0.578 0.496-0.978 0-0.011-0-0.022-0-0.033l0 0.002v-0.056c0-0.568-0.218-1.004-0.654-1.308-0.436-0.302-0.994-0.454-1.676-0.454-0.748 0-1.36 0.166-1.832 0.498-0.464 0.32-0.744 0.82-0.838 1.49h-7.216c0.097-1.378 0.556-2.632 1.28-3.689l-0.016 0.025c0.758-1.126 1.86-2.026 3.31-2.7 1.448-0.68 3.258-1.020 5.426-1.020 1.562 0 2.964 0.184 4.204 0.552 1.24 0.36 2.296 0.868 3.168 1.52 0.872 0.644 1.534 1.402 1.988 2.274 0.464 0.86 0.696 1.8 0.696 2.812v14.944h-7.328v-3.072h-0.172c-0.406 0.779-0.939 1.436-1.58 1.968l-0.010 0.008c-0.616 0.5-1.32 0.866-2.116 1.092-0.749 0.216-1.61 0.341-2.499 0.341-0.035 0-0.071-0-0.106-0.001l0.005 0zM52.668 24.488c0.598 0 1.156-0.122 1.676-0.368 0.532-0.246 0.962-0.602 1.294-1.066s0.496-1.028 0.496-1.69v-1.82c-0.157 0.068-0.377 0.15-0.602 0.224l-0.064 0.018c-0.415 0.14-0.94 0.277-1.475 0.384l-0.087 0.014c-0.176 0.041-0.48 0.096-0.786 0.144l-0.11 0.014c-0.556 0.073-1.060 0.238-1.516 0.48l0.024-0.012c-0.38 0.208-0.662 0.468-0.852 0.78-0.17 0.285-0.27 0.628-0.27 0.994 0 0.010 0 0.021 0 0.031l-0-0.002c0 0.606 0.214 1.070 0.64 1.392 0.426 0.32 0.97 0.482 1.632 0.482zM26.904 29.092v-21.82h7.614v4.148h0.228c0.396-1.534 1.026-2.656 1.888-3.366 0.803-0.664 1.843-1.067 2.977-1.067 0.027 0 0.054 0 0.081 0.001l-0.004-0c0.34 0 0.678 0.030 1.010 0.086 0.34 0.048 0.666 0.12 0.98 0.212v6.694c-0.416-0.139-0.903-0.245-1.406-0.297l-0.030-0.003c-0.433-0.058-0.94-0.094-1.454-0.1l-0.008-0c-0.768 0-1.46 0.176-2.074 0.528-0.606 0.34-1.084 0.822-1.436 1.448-0.35 0.616-0.524 1.34-0.524 2.174v11.362h-7.84zM0 6.364v-6.364h25.284v6.364h-8.75v22.728h-7.784v-22.73h-8.75z"></path>
</symbol>
<symbol id="icon-map" viewBox="0 0 32 32">
<path d="M31.634 0.226c0.224 0.185 0.366 0.462 0.366 0.773 0 0.001 0 0.001 0 0.002v-0 28c-0.001 0.483-0.343 0.885-0.798 0.978l-0.006 0.001-10 2c-0.059 0.012-0.127 0.019-0.196 0.019s-0.137-0.007-0.202-0.020l0.006 0.001-9.803-1.96-9.803 1.96c-0.059 0.012-0.127 0.020-0.197 0.020-0.552 0-0.999-0.447-1-0.999v-28c0-0 0-0 0-0 0-0.483 0.342-0.885 0.797-0.979l0.006-0.001 10-2c0.059-0.012 0.127-0.019 0.196-0.019s0.137 0.007 0.202 0.021l-0.006-0.001 9.805 1.96 9.805-1.96c0.059-0.012 0.127-0.019 0.196-0.019 0.241 0 0.462 0.085 0.635 0.227l-0.002-0.001zM20 3.819l-8-1.6v25.96l8 1.6v-25.96zM22 29.779l8-1.6v-25.96l-8 1.6v25.96zM10 28.179v-25.96l-8 1.6v25.96l8-1.6z"></path>
</symbol>
<symbol id="icon-ac" viewBox="0 0 32 32">
<path d="M25 4c-2.761 0-5 2.239-5 5v0c0 0.552-0.448 1-1 1s-1-0.448-1-1v0c0-3.866 3.134-7 7-7s7 3.134 7 7c0 3.866-3.134 7-7 7v0h-24c-0.552 0-1-0.448-1-1s0.448-1 1-1v0h24c2.761 0 5-2.239 5-5s-2.239-5-5-5v0zM11 6c-1.105 0-2 0.895-2 2v0c0 0.552-0.448 1-1 1s-1-0.448-1-1v0c0-2.209 1.791-4 4-4s4 1.791 4 4c0 2.209-1.791 4-4 4v0h-10c-0.552 0-1-0.448-1-1s0.448-1 1-1v0h10c1.105 0 2-0.895 2-2s-0.895-2-2-2v0zM0 19c0-0.552 0.448-1 1-1v0h20.084c3.314 0 6 2.686 6 6s-2.686 6-6 6c-3.314 0-6-2.686-6-6v0c0-0.552 0.448-1 1-1s1 0.448 1 1v0c0 2.209 1.791 4 4 4s4-1.791 4-4c0-2.209-1.791-4-4-4v0h-20.084c-0.552 0-1-0.448-1-1v0z"></path>
</symbol>
<symbol id="icon-automatic" viewBox="0 0 32 32">
<path d="M12 7c0-1.657 1.343-3 3-3v0h2c1.657 0 3 1.343 3 3v0 2c0 1.657-1.343 3-3 3v0 2h11c0.552 0 1 0.448 1 1v0 2c0 0.552-0.448 1-1 1s-1-0.448-1-1v0-1h-10v1c0 0.552-0.448 1-1 1s-1-0.448-1-1v0-1h-10v1c0 0.552-0.448 1-1 1s-1-0.448-1-1v0-2c0-0.552 0.448-1 1-1v0h11v-2c-1.657 0-3-1.343-3-3v0-2zM17 10c0.552 0 1-0.448 1-1v0-2c0-0.552-0.448-1-1-1v0h-2c-0.552 0-1 0.448-1 1v0 2c0 0.552 0.448 1 1 1v0h2zM0 23c0-1.657 1.343-3 3-3v0h2c1.657 0 3 1.343 3 3v0 2c0 1.657-1.343 3-3 3v0h-2c-1.657 0-3-1.343-3-3v0-2zM3 22c-0.552 0-1 0.448-1 1v0 2c0 0.552 0.448 1 1 1v0h2c0.552 0 1-0.448 1-1v0-2c0-0.552-0.448-1-1-1v0h-2zM12 23c0-1.657 1.343-3 3-3v0h2c1.657 0 3 1.343 3 3v0 2c0 1.657-1.343 3-3 3v0h-2c-1.657 0-3-1.343-3-3v0-2zM15 22c-0.552 0-1 0.448-1 1v0 2c0 0.552 0.448 1 1 1v0h2c0 0 0.001 0 0.002 0 0.551 0 0.998-0.447 0.998-0.998 0-0.001 0-0.001 0-0.002v0-2c0-0 0-0.001 0-0.002 0-0.551-0.447-0.998-0.998-0.998-0.001 0-0.001 0-0.002 0h-2zM24 23c0-1.657 1.343-3 3-3v0h2c1.657 0 3 1.343 3 3v0 2c0 1.657-1.343 3-3 3v0h-2c-1.657 0-3-1.343-3-3v0-2zM27 22c-0 0-0.001 0-0.002 0-0.551 0-0.998 0.447-0.998 0.998 0 0.001 0 0.001 0 0.002v-0 2c0 0 0 0.001 0 0.002 0 0.551 0.447 0.998 0.998 0.998 0.001 0 0.001 0 0.002 0h2c0 0 0.001 0 0.002 0 0.551 0 0.998-0.447 0.998-0.998 0-0.001 0-0.001 0-0.002v0-2c0-0 0-0.001 0-0.002 0-0.551-0.447-0.998-0.998-0.998-0.001 0-0.001 0-0.002 0h-2z"></path>
</symbol>
<symbol id="icon-petrol" viewBox="0 0 32 32">
<path d="M6 5c0-0.552 0.448-1 1-1v0h10c0.552 0 1 0.448 1 1v0 10c0 0.552-0.448 1-1 1v0h-10c-0.552 0-1-0.448-1-1v0-10z"></path>
<path d="M2 4c0-2.209 1.791-4 4-4v0h12c2.209 0 4 1.791 4 4v0 16c2.209 0 4 1.791 4 4v0 1c0 0.552 0.448 1 1 1s1-0.448 1-1v0-9h-1c-0.552 0-1-0.448-1-1v0-6.25c0-0.552 0.448-1 1-1v0h2.99c-0.022-0.952-0.107-1.789-0.403-2.445-0.163-0.386-0.436-0.7-0.779-0.91l-0.008-0.005c-0.368-0.221-0.928-0.39-1.8-0.39-0.552 0-1-0.448-1-1s0.448-1 1-1v0c1.128-0.003 2.069 0.221 2.824 0.672 0.766 0.456 1.269 1.102 1.587 1.814 0.592 1.31 0.589 2.93 0.589 4.162v6.35c0 0 0 0.001 0 0.002 0 0.552-0.448 1-1 1h-1v9c0 1.657-1.343 3-3 3s-3-1.343-3-3v0-1c0-1.105-0.895-2-2-2v0 8h1c0.552 0 1 0.448 1 1s-0.448 1-1 1v0h-22c-0.552 0-1-0.448-1-1s0.448-1 1-1v0h1v-26zM20 4c0-1.105-0.895-2-2-2v0h-12c-1.105 0-2 0.895-2 2v0 26h16v-26z"></path>
</symbol>
<symbol id="icon-tv" viewBox="0 0 32 32">
<path d="M0 8s0-4 4-4h24s4 0 4 4v12s0 4-4 4h-8c0 1.333 0.167 2.333 0.5 3h1.5c0.552 0 1 0.448 1 1s-0.448 1-1 1v0h-12c-0.552 0-1-0.448-1-1s0.448-1 1-1v0h1.5c0.333-0.667 0.5-1.667 0.5-3h-8s-4 0-4-4v-12zM2.796 6.29c-0.218 0.153-0.391 0.357-0.504 0.595l-0.004 0.009c-0.161 0.329-0.264 0.713-0.288 1.118l-0 0.008v11.98c0 0.65 0.156 1.004 0.29 1.204 0.14 0.208 0.341 0.377 0.604 0.508 0.338 0.162 0.703 0.259 1.076 0.286l0.050 0.002h23.98c0.65 0 1.004-0.156 1.204-0.29 0.218-0.153 0.391-0.357 0.504-0.595l0.004-0.009c0.162-0.338 0.259-0.703 0.286-1.076l0.002-0.050v-11.98c0-0.65-0.156-1.004-0.29-1.204-0.153-0.218-0.357-0.391-0.595-0.504l-0.009-0.004c-0.329-0.161-0.713-0.264-1.118-0.288l-0.008-0h-23.98c-0.65 0-1.004 0.156-1.204 0.29z"></path>
</symbol>
<symbol id="icon-bathroom" viewBox="0 0 32 32">
<path d="M8 29.5c0 0.828-0.672 1.5-1.5 1.5s-1.5-0.672-1.5-1.5v0c0-0.828 0.672-1.5 1.5-1.5s1.5 0.672 1.5 1.5v0zM10.5 24c-0.828 0-1.5 0.672-1.5 1.5s0.672 1.5 1.5 1.5v0c0.828 0 1.5-0.672 1.5-1.5s-0.672-1.5-1.5-1.5v0zM2.5 24c-0.828 0-1.5 0.672-1.5 1.5s0.672 1.5 1.5 1.5v0c0.828 0 1.5-0.672 1.5-1.5s-0.672-1.5-1.5-1.5v0zM6.5 20c-0.828 0-1.5 0.672-1.5 1.5s0.672 1.5 1.5 1.5v0c0.828 0 1.5-0.672 1.5-1.5s-0.672-1.5-1.5-1.5v0zM32 5c0 0.552-0.448 1-1 1v0h-3.586l-3.482 3.482-2.707 15.85c-0.165 0.952-0.985 1.667-1.972 1.667-0.552 0-1.052-0.224-1.414-0.585l-12.25-12.25c-0.362-0.362-0.587-0.862-0.587-1.415 0-0.989 0.718-1.81 1.661-1.971l0.012-0.002 15.842-2.708 3.776-3.775c0.181-0.181 0.431-0.293 0.707-0.293h4c0.552 0 1 0.448 1 1v0zM21.776 10.224l-14.776 2.526 12.25 12.25 2.526-14.776z"></path>
</symbol>
<symbol id="icon-van" viewBox="0 0 32 32">
<path d="M12 2h-10v28h10v-28zM30 2h-10v10h10v-10zM30 20v10h-10v-10h10zM0 2c0-1.105 0.895-2 2-2v0h10c1.105 0 2 0.895 2 2v0 28c0 1.105-0.895 2-2 2v0h-10c-1.105 0-2-0.895-2-2v0-28zM18 2c0-1.105 0.895-2 2-2v0h10c1.105 0 2 0.895 2 2v0 10c0 1.105-0.895 2-2 2v0h-10c-1.105 0-2-0.895-2-2v0-10zM20 18c-1.105 0-2 0.895-2 2v0 10c0 1.105 0.895 2 2 2v0h10c1.105 0 2-0.895 2-2v0-10c0-1.105-0.895-2-2-2v0h-10z"></path>
</symbol>
<symbol id="icon-fully-integrated" viewBox="0 0 32 32">
<path d="M2 5c0-1.657 1.343-3 3-3v0h6c1.657 0 3 1.343 3 3v0 6c0 1.657-1.343 3-3 3v0h-6c-1.657 0-3-1.343-3-3v0-6zM5 4c-0.552 0-1 0.448-1 1v0 6c0 0.552 0.448 1 1 1v0h6c0.552 0 1-0.448 1-1v0-6c0-0.552-0.448-1-1-1v0h-6zM18 5c0-1.657 1.343-3 3-3v0h6c1.657 0 3 1.343 3 3v0 6c0 1.657-1.343 3-3 3v0h-6c-1.657 0-3-1.343-3-3v0-6zM21 4c-0.552 0-1 0.448-1 1v0 6c0 0.552 0.448 1 1 1v0h6c0.552 0 1-0.448 1-1v0-6c0-0.552-0.448-1-1-1v0h-6zM2 21c0-1.657 1.343-3 3-3v0h6c1.657 0 3 1.343 3 3v0 6c0 1.657-1.343 3-3 3v0h-6c-1.657 0-3-1.343-3-3v0-6zM5 20c-0.552 0-1 0.448-1 1v0 6c0 0.552 0.448 1 1 1v0h6c0.552 0 1-0.448 1-1v0-6c0-0.552-0.448-1-1-1v0h-6zM18 21c0-1.657 1.343-3 3-3v0h6c1.657 0 3 1.343 3 3v0 6c0 1.657-1.343 3-3 3v0h-6c-1.657 0-3-1.343-3-3v0-6zM21 20c-0.552 0-1 0.448-1 1v0 6c0 0.552 0.448 1 1 1v0h6c0.552 0 1-0.448 1-1v0-6c0-0.552-0.448-1-1-1v0h-6z"></path>
</symbol>
<symbol id="icon-alcove" viewBox="0 0 32 32">
<path d="M8 4v4h-4v-4h4zM10 28v-4c0-1.105-0.895-2-2-2v0h-4c-1.105 0-2 0.895-2 2v0 4c0 1.105 0.895 2 2 2v0h4c1.105 0 2-0.895 2-2v0zM10 18v-4c0-1.105-0.895-2-2-2v0h-4c-1.105 0-2 0.895-2 2v0 4c0 1.105 0.895 2 2 2v0h4c1.105 0 2-0.895 2-2v0zM10 8v-4c0-1.105-0.895-2-2-2v0h-4c-1.105 0-2 0.895-2 2v0 4c0 1.105 0.895 2 2 2v0h4c1.105 0 2-0.895 2-2v0zM20 28v-4c0-1.105-0.895-2-2-2v0h-4c-1.105 0-2 0.895-2 2v0 4c0 1.105 0.895 2 2 2v0h4c1.105 0 2-0.895 2-2v0zM20 18v-4c0-1.105-0.895-2-2-2v0h-4c-1.105 0-2 0.895-2 2v0 4c0 1.105 0.895 2 2 2v0h4c1.105 0 2-0.895 2-2v0zM20 8v-4c0-1.105-0.895-2-2-2v0h-4c-1.105 0-2 0.895-2 2v0 4c0 1.105 0.895 2 2 2v0h4c1.105 0 2-0.895 2-2v0zM18 4v4h-4v-4h4zM28 4v4h-4v-4h4zM8 14v4h-4v-4h4zM18 14v4h-4v-4h4zM28 14h-4v4h4v-4zM8 24v4h-4v-4h4zM18 24v4h-4v-4h4zM28 24v4h-4v-4h4zM24 2c-1.105 0-2 0.895-2 2v0 4c0 1.105 0.895 2 2 2v0h4c1.105 0 2-0.895 2-2v0-4c0-1.105-0.895-2-2-2v0h-4zM22 14c0-1.105 0.895-2 2-2v0h4c1.105 0 2 0.895 2 2v0 4c0 1.105-0.895 2-2 2v0h-4c-1.105 0-2-0.895-2-2v0-4zM24 22c-1.105 0-2 0.895-2 2v0 4c0 1.105 0.895 2 2 2v0h4c1.105 0 2-0.895 2-2v0-4c0-1.105-0.895-2-2-2v0h-4z"></path>
</symbol>
<symbol id="icon-star" viewBox="0 0 32 32">
<path d="M15.116 1.676c0.171-0.319 0.503-0.532 0.884-0.532s0.713 0.213 0.881 0.527l0.003 0.005 3.778 7.158c0.144 0.27 0.401 0.464 0.706 0.519l0.006 0.001 7.976 1.38c0.473 0.085 0.827 0.494 0.827 0.985 0 0.27-0.107 0.515-0.281 0.695l0-0-5.64 5.804c-0.176 0.18-0.284 0.426-0.284 0.698 0 0.050 0.004 0.099 0.011 0.147l-0.001-0.005 1.152 8.010c0.006 0.043 0.010 0.092 0.010 0.142 0 0.552-0.448 1-1 1-0.16 0-0.312-0.038-0.446-0.105l0.006 0.003-7.264-3.572c-0.129-0.065-0.281-0.103-0.442-0.103s-0.313 0.038-0.448 0.106l0.006-0.003-7.26 3.572c-0.129 0.065-0.281 0.103-0.442 0.103-0.552 0-1-0.448-1-1 0-0.050 0.004-0.1 0.011-0.149l-0.001 0.005 1.152-8.010c0.006-0.043 0.010-0.092 0.010-0.142 0-0.272-0.108-0.518-0.284-0.698l-5.64-5.804c-0.174-0.18-0.281-0.425-0.281-0.695 0-0.491 0.354-0.9 0.821-0.984l0.006-0.001 7.976-1.38c0.312-0.056 0.57-0.249 0.711-0.515l0.003-0.005 3.778-7.158z"></path>
</symbol>
<symbol id="icon-heart" viewBox="0 0 35 32">
<path d="M17.333 13.139l-1.788-3.577c-0.444-0.887-1.213-2.16-2.304-3.191-1.072-1.013-2.356-1.704-3.908-1.704-3.352 0-6 2.652-6 5.84 0 2.423 1.108 4.132 3.736 6.74 0.719 0.705 1.465 1.418 2.221 2.122l0.071 0.065c2.216 2.080 4.972 4.667 7.972 8.128 3-3.46 5.756-6.049 7.972-8.128 0.827-0.768 1.573-1.482 2.31-2.204l-0.018 0.018c2.628-2.608 3.736-4.319 3.736-6.74 0-3.188-2.648-5.84-6-5.84-1.555 0-2.836 0.691-3.908 1.704-1.089 1.031-1.86 2.304-2.304 3.191l-1.788 3.577zM18.117 29.723c-0.19 0.223-0.47 0.364-0.784 0.364s-0.594-0.141-0.783-0.362l-0.001-0.001c-3.203-3.804-6.1-6.524-8.487-8.763-4.129-3.876-6.729-6.316-6.729-10.453 0-4.329 3.58-7.84 8-7.84 3.2 0 5.439 2.1 6.808 4.016 0.52 0.731 0.916 1.432 1.192 1.984 0.347-0.691 0.745-1.353 1.192-1.984 1.369-1.917 3.608-4.016 6.808-4.016 4.42 0 8 3.511 8 7.84 0 4.137-2.6 6.576-6.729 10.453-2.387 2.24-5.284 4.963-8.487 8.763z"></path>
</symbol>
<symbol id="icon-kitchen" viewBox="0 0 33 32">
<path d="M1.5 12c-0.552 0.001-0.999 0.449-0.999 1.001 0 0.076 0.008 0.15 0.025 0.222l-0.001-0.007 3.304 14.868c0.514 2.257 2.503 3.915 4.88 3.916h11.584c2.377-0.001 4.366-1.659 4.874-3.882l0.006-0.034 0.262-1.18c0.332 0.065 0.713 0.102 1.103 0.102 3.314 0 6-2.686 6-6 0-2.782-1.893-5.121-4.461-5.801l-0.042-0.009 0.442-1.98c0.015-0.065 0.024-0.139 0.024-0.216 0-0.552-0.448-1-1-1h-26zM26.5 25c-0.212 0-0.423-0.017-0.632-0.050l1.734-7.796c1.682 0.499 2.889 2.030 2.889 3.844 0 2.206-1.785 3.996-3.99 4.002h-0.001zM5.78 27.65l-3.034-13.65h23.508l-3.034 13.65c-0.308 1.354-1.502 2.35-2.928 2.35h-11.584c-1.426-0-2.62-0.996-2.924-2.33l-0.004-0.020z"></path>
<path d="M9.3 1.6l-0.006 0.008-0.028 0.038c-0.146 0.2-0.282 0.407-0.408 0.62-0.097 0.151-0.191 0.326-0.272 0.508l-0.010 0.026c-0.052 0.12-0.068 0.184-0.074 0.206v0.008c0.025 0.187 0.089 0.355 0.185 0.501l-0.003-0.005c0.15 0.266 0.356 0.544 0.616 0.89l0.020 0.024c0.236 0.316 0.52 0.694 0.74 1.086 0.224 0.4 0.44 0.91 0.44 1.49 0 0.376-0.13 0.736-0.238 0.988-0.116 0.268-0.25 0.528-0.404 0.776-0.181 0.301-0.348 0.551-0.525 0.792l0.019-0.028-0.036 0.050-0.010 0.016-0.004 0.004c-0.184 0.245-0.474 0.401-0.801 0.401-0.552 0-1-0.448-1-1 0-0.226 0.075-0.434 0.201-0.602l-0.002 0.003 0.006-0.008 0.028-0.038c0.146-0.2 0.282-0.407 0.408-0.62 0.097-0.151 0.191-0.326 0.272-0.508l0.010-0.026c0.052-0.12 0.068-0.184 0.074-0.206-0.023-0.189-0.087-0.36-0.183-0.509l0.003 0.005c-0.204-0.339-0.408-0.63-0.63-0.905l0.012 0.015-0.020-0.024c-0.249-0.316-0.494-0.67-0.715-1.040l-0.025-0.046c-0.261-0.425-0.423-0.937-0.44-1.485l-0-0.005c0-0.376 0.13-0.736 0.238-0.988 0.118-0.276 0.268-0.548 0.404-0.776 0.159-0.261 0.328-0.516 0.506-0.764l0.050-0.070c0.184-0.245 0.474-0.401 0.801-0.401 0.552 0 1 0.448 1 1 0 0.226-0.075 0.434-0.201 0.602l0.002-0.003zM15.3 1.6l-0.006 0.008-0.028 0.038c-0.146 0.2-0.282 0.407-0.408 0.62-0.107 0.17-0.202 0.35-0.282 0.534-0.052 0.12-0.068 0.184-0.074 0.206v0.008c0.025 0.187 0.089 0.355 0.185 0.501l-0.003-0.005c0.15 0.266 0.356 0.544 0.616 0.89l0.020 0.024c0.236 0.316 0.52 0.694 0.74 1.086 0.224 0.4 0.44 0.91 0.44 1.49 0 0.376-0.13 0.736-0.238 0.988-0.116 0.268-0.25 0.528-0.404 0.776-0.181 0.301-0.348 0.55-0.525 0.791l0.019-0.027-0.036 0.050-0.010 0.016-0.004 0.004c-0.184 0.245-0.474 0.401-0.801 0.401-0.552 0-1-0.448-1-1 0-0.226 0.075-0.434 0.201-0.602l-0.002 0.003 0.006-0.008 0.028-0.038c0.146-0.2 0.282-0.407 0.408-0.62 0.107-0.17 0.202-0.35 0.282-0.534 0.052-0.12 0.068-0.184 0.074-0.206-0.023-0.189-0.087-0.36-0.183-0.509l0.003 0.005c-0.204-0.339-0.408-0.63-0.63-0.905l0.012 0.015-0.020-0.024c-0.27-0.345-0.517-0.708-0.74-1.086-0.261-0.425-0.423-0.937-0.44-1.485l-0-0.005c0-0.376 0.13-0.736 0.238-0.988 0.118-0.276 0.268-0.548 0.404-0.776 0.159-0.261 0.328-0.516 0.506-0.764l0.050-0.070c0.184-0.245 0.474-0.401 0.801-0.401 0.552 0 1 0.448 1 1 0 0.226-0.075 0.434-0.201 0.602l0.002-0.003zM21.3 1.6l-0.006 0.008-0.028 0.038c-0.145 0.2-0.282 0.407-0.408 0.62-0.107 0.17-0.202 0.35-0.282 0.534-0.052 0.12-0.068 0.184-0.074 0.206v0.008c0.025 0.187 0.089 0.355 0.185 0.501l-0.003-0.005c0.15 0.266 0.356 0.544 0.616 0.89l0.020 0.024c0.236 0.316 0.52 0.694 0.74 1.086 0.224 0.4 0.44 0.91 0.44 1.49 0 0.376-0.13 0.736-0.238 0.988-0.116 0.268-0.25 0.528-0.404 0.776-0.156 0.262-0.324 0.517-0.504 0.764l-0.038 0.050-0.010 0.016-0.004 0.004c-0.184 0.245-0.474 0.401-0.801 0.401-0.552 0-1-0.448-1-1 0-0.226 0.075-0.434 0.201-0.602l-0.002 0.003 0.006-0.008 0.028-0.038c0.145-0.2 0.282-0.407 0.408-0.62 0.107-0.17 0.202-0.35 0.282-0.534 0.052-0.12 0.068-0.184 0.074-0.206-0.023-0.189-0.087-0.36-0.183-0.509l0.003 0.005c-0.204-0.339-0.408-0.63-0.63-0.905l0.012 0.015-0.020-0.024c-0.27-0.345-0.517-0.708-0.74-1.086-0.261-0.425-0.423-0.937-0.44-1.485l-0-0.005c0-0.376 0.13-0.736 0.238-0.988 0.118-0.276 0.268-0.548 0.404-0.776 0.159-0.261 0.328-0.516 0.506-0.764l0.050-0.070c0.184-0.245 0.474-0.401 0.801-0.401 0.552 0 1 0.448 1 1 0 0.226-0.075 0.434-0.201 0.602l0.002-0.003z"></path>
</symbol>
</defs>
</svg>
